<?xml version="1.0" encoding="UTF-8"?>
<svg id="Layer_1" data-name="Layer 1" xmlns="http://www.w3.org/2000/svg" viewBox="0 0 64 64">
  <defs>
    <style>
      .cls-1 {
        fill: none;
      }

      .cls-2 {
        fill: #0165ff;
      }

      .cls-3 {
        fill: #ffc30c;
      }
    </style>
  </defs>
  <rect class="cls-1" x=".01" y=".01" width="63.97" height="63.97"/>
  <g>
    <g>
      <g>
        <g>
          <path class="cls-3" d="M17.23,54.49c-3.34-1.9-4.4-6.22-2.4-9.48,1.95-3.19,6.27-4.14,9.41-2.15,1.19.75,1.92,2.02,3.14,2.82,2.82,1.85,6.69,1.66,9.24-.57.62-.54,1.13-1.27,1.77-1.78,3.68-2.96,9.22-1.23,10.69,3.26,1.58,4.82-2.8,9.73-7.74,8.72-2.05-.42-2.83-1.27-4.2-2.67-2.83-2.89-7.41-3.17-10.5-.59-.82.68-1.35,1.55-2.26,2.16-2.07,1.4-4.96,1.53-7.15.29Z"/>
          <path class="cls-3" d="M7.98,37.58c-4.71-2.16-5.2-8.59-.78-11.36,1.79-1.12,4.09-1.23,6.02-.41,1.81.77,2.67,2.55,4.33,3.44,2.68,1.43,5.91,1.18,8.25-.75.54-.44.9-.96,1.39-1.43,3.03-2.92,8.17-2.06,10.14,1.67,2.8,5.3-2.43,11.06-8.04,9.03-1.58-.57-2-1.41-3.11-2.45-2.85-2.69-7.39-2.71-10.19.03-.6.59-1,1.16-1.72,1.65-1.84,1.24-4.25,1.51-6.29.57Z"/>
          <path class="cls-3" d="M18.43,20.85c-2.24-1.04-3.83-3.5-3.76-5.97.14-5.17,5.88-8.06,10.15-5.21,1.03.69,1.64,1.79,2.75,2.53,2.18,1.45,4.9,1.64,7.26.54,1.53-.72,2.14-1.76,3.4-2.75,2.61-2.06,6.12-1.79,8.54.52,1.46,1.4,2.17,3.88,1.73,5.87-1.13,5.11-7.47,6.83-11.08,3.02-.16-.16-.27-.38-.44-.55-3-3.06-7.62-3.02-10.62-.05-.24.23-.43.53-.66.76-1.88,1.84-4.85,2.39-7.24,1.28Z"/>
          <path class="cls-3" d="M49.95,37.58c-3.06-1.48-4.41-5.5-2.94-8.55,2.52-5.21,10.14-4.72,11.96.79,1.8,5.45-3.88,10.23-9.02,7.76Z"/>
        </g>
        <g>
          <path class="cls-3" d="M17.23,54.49c-3.34-1.9-4.4-6.22-2.4-9.48,1.95-3.19,6.27-4.14,9.41-2.15,1.19.75,1.92,2.02,3.14,2.82,2.82,1.85,6.69,1.66,9.24-.57.62-.54,1.13-1.27,1.77-1.78,3.68-2.96,9.22-1.23,10.69,3.26,1.58,4.82-2.8,9.73-7.74,8.72-2.05-.42-2.83-1.27-4.2-2.67-2.83-2.89-7.41-3.17-10.5-.59-.82.68-1.35,1.55-2.26,2.16-2.07,1.4-4.96,1.53-7.15.29Z"/>
          <path class="cls-3" d="M7.98,37.58c-4.71-2.16-5.2-8.59-.78-11.36,1.79-1.12,4.09-1.23,6.02-.41,1.81.77,2.67,2.55,4.33,3.44,2.68,1.43,5.91,1.18,8.25-.75.54-.44.9-.96,1.39-1.43,3.03-2.92,8.17-2.06,10.14,1.67,2.8,5.3-2.43,11.06-8.04,9.03-1.58-.57-2-1.41-3.11-2.45-2.85-2.69-7.39-2.71-10.19.03-.6.59-1,1.16-1.72,1.65-1.84,1.24-4.25,1.51-6.29.57Z"/>
          <path class="cls-3" d="M18.43,20.85c-2.24-1.04-3.83-3.5-3.76-5.97.14-5.17,5.88-8.06,10.15-5.21,1.03.69,1.64,1.79,2.75,2.53,2.18,1.45,4.9,1.64,7.26.54,1.53-.72,2.14-1.76,3.4-2.75,2.61-2.06,6.12-1.79,8.54.52,1.46,1.4,2.17,3.88,1.73,5.87-1.13,5.11-7.47,6.83-11.08,3.02-.16-.16-.27-.38-.44-.55-3-3.06-7.62-3.02-10.62-.05-.24.23-.43.53-.66.76-1.88,1.84-4.85,2.39-7.24,1.28Z"/>
          <path class="cls-3" d="M49.95,37.58c-3.06-1.48-4.41-5.5-2.94-8.55,2.52-5.21,10.14-4.72,11.96.79,1.8,5.45-3.88,10.23-9.02,7.76Z"/>
        </g>
        <g>
          <path class="cls-3" d="M17.23,54.49c-3.34-1.9-4.4-6.22-2.4-9.48,1.95-3.19,6.27-4.14,9.41-2.15,1.19.75,1.92,2.02,3.14,2.82,2.82,1.85,6.69,1.66,9.24-.57.62-.54,1.13-1.27,1.77-1.78,3.68-2.96,9.22-1.23,10.69,3.26,1.58,4.82-2.8,9.73-7.74,8.72-2.05-.42-2.83-1.27-4.2-2.67-2.83-2.89-7.41-3.17-10.5-.59-.82.68-1.35,1.55-2.26,2.16-2.07,1.4-4.96,1.53-7.15.29Z"/>
          <path class="cls-3" d="M7.98,37.58c-4.71-2.16-5.2-8.59-.78-11.36,1.79-1.12,4.09-1.23,6.02-.41,1.81.77,2.67,2.55,4.33,3.44,2.68,1.43,5.91,1.18,8.25-.75.54-.44.9-.96,1.39-1.43,3.03-2.92,8.17-2.06,10.14,1.67,2.8,5.3-2.43,11.06-8.04,9.03-1.58-.57-2-1.41-3.11-2.45-2.85-2.69-7.39-2.71-10.19.03-.6.59-1,1.16-1.72,1.65-1.84,1.24-4.25,1.51-6.29.57Z"/>
          <path class="cls-3" d="M18.43,20.85c-2.24-1.04-3.83-3.5-3.76-5.97.14-5.17,5.88-8.06,10.15-5.21,1.03.69,1.64,1.79,2.75,2.53,2.18,1.45,4.9,1.64,7.26.54,1.53-.72,2.14-1.76,3.4-2.75,2.61-2.06,6.12-1.79,8.54.52,1.46,1.4,2.17,3.88,1.73,5.87-1.13,5.11-7.47,6.83-11.08,3.02-.16-.16-.27-.38-.44-.55-3-3.06-7.62-3.02-10.62-.05-.24.23-.43.53-.66.76-1.88,1.84-4.85,2.39-7.24,1.28Z"/>
          <path class="cls-3" d="M49.95,37.58c-3.06-1.48-4.41-5.5-2.94-8.55,2.52-5.21,10.14-4.72,11.96.79,1.8,5.45-3.88,10.23-9.02,7.76Z"/>
        </g>
      </g>
      <path class="cls-3" d="M50.99,24.74h3.73c2.83,0,5.13,2.3,5.13,5.13v3.73c0,2.83-2.3,5.13-5.13,5.13h-3.73c-2.83,0-5.13-2.3-5.13-5.13v-3.73c0-2.83,2.3-5.13,5.13-5.13Z"/>
    </g>
    <g>
      <g>
        <g>
          <path class="cls-3" d="M17.23,54.49c-3.34-1.9-4.4-6.22-2.4-9.48,1.95-3.19,6.27-4.14,9.41-2.15,1.19.75,1.92,2.02,3.14,2.82,2.82,1.85,6.69,1.66,9.24-.57.62-.54,1.13-1.27,1.77-1.78,3.68-2.96,9.22-1.23,10.69,3.26,1.58,4.82-2.8,9.73-7.74,8.72-2.05-.42-2.83-1.27-4.2-2.67-2.83-2.89-7.41-3.17-10.5-.59-.82.68-1.35,1.55-2.26,2.16-2.07,1.4-4.96,1.53-7.15.29Z"/>
          <path class="cls-3" d="M7.98,37.58c-4.71-2.16-5.2-8.59-.78-11.36,1.79-1.12,4.09-1.23,6.02-.41,1.81.77,2.67,2.55,4.33,3.44,2.68,1.43,5.91,1.18,8.25-.75.54-.44.9-.96,1.39-1.43,3.03-2.92,8.17-2.06,10.14,1.67,2.8,5.3-2.43,11.06-8.04,9.03-1.58-.57-2-1.41-3.11-2.45-2.85-2.69-7.39-2.71-10.19.03-.6.59-1,1.16-1.72,1.65-1.84,1.24-4.25,1.51-6.29.57Z"/>
          <path class="cls-3" d="M18.43,20.85c-2.24-1.04-3.83-3.5-3.76-5.97.14-5.17,5.88-8.06,10.15-5.21,1.03.69,1.64,1.79,2.75,2.53,2.18,1.45,4.9,1.64,7.26.54,1.53-.72,2.14-1.76,3.4-2.75,2.61-2.06,6.12-1.79,8.54.52,1.46,1.4,2.17,3.88,1.73,5.87-1.13,5.11-7.47,6.83-11.08,3.02-.16-.16-.27-.38-.44-.55-3-3.06-7.62-3.02-10.62-.05-.24.23-.43.53-.66.76-1.88,1.84-4.85,2.39-7.24,1.28Z"/>
          <path class="cls-3" d="M49.95,37.58c-3.06-1.48-4.41-5.5-2.94-8.55,2.52-5.21,10.14-4.72,11.96.79,1.8,5.45-3.88,10.23-9.02,7.76Z"/>
        </g>
        <g>
          <path class="cls-3" d="M17.23,54.49c-3.34-1.9-4.4-6.22-2.4-9.48,1.95-3.19,6.27-4.14,9.41-2.15,1.19.75,1.92,2.02,3.14,2.82,2.82,1.85,6.69,1.66,9.24-.57.62-.54,1.13-1.27,1.77-1.78,3.68-2.96,9.22-1.23,10.69,3.26,1.58,4.82-2.8,9.73-7.74,8.72-2.05-.42-2.83-1.27-4.2-2.67-2.83-2.89-7.41-3.17-10.5-.59-.82.68-1.35,1.55-2.26,2.16-2.07,1.4-4.96,1.53-7.15.29Z"/>
          <path class="cls-3" d="M7.98,37.58c-4.71-2.16-5.2-8.59-.78-11.36,1.79-1.12,4.09-1.23,6.02-.41,1.81.77,2.67,2.55,4.33,3.44,2.68,1.43,5.91,1.18,8.25-.75.54-.44.9-.96,1.39-1.43,3.03-2.92,8.17-2.06,10.14,1.67,2.8,5.3-2.43,11.06-8.04,9.03-1.58-.57-2-1.41-3.11-2.45-2.85-2.69-7.39-2.71-10.19.03-.6.59-1,1.16-1.72,1.65-1.84,1.24-4.25,1.51-6.29.57Z"/>
          <path class="cls-3" d="M18.43,20.85c-2.24-1.04-3.83-3.5-3.76-5.97.14-5.17,5.88-8.06,10.15-5.21,1.03.69,1.64,1.79,2.75,2.53,2.18,1.45,4.9,1.64,7.26.54,1.53-.72,2.14-1.76,3.4-2.75,2.61-2.06,6.12-1.79,8.54.52,1.46,1.4,2.17,3.88,1.73,5.87-1.13,5.11-7.47,6.83-11.08,3.02-.16-.16-.27-.38-.44-.55-3-3.06-7.62-3.02-10.62-.05-.24.23-.43.53-.66.76-1.88,1.84-4.85,2.39-7.24,1.28Z"/>
          <path class="cls-2" d="M49.95,37.58c-3.06-1.48-4.41-5.5-2.94-8.55,2.52-5.21,10.14-4.72,11.96.79,1.8,5.45-3.88,10.23-9.02,7.76Z"/>
        </g>
      </g>
      <path class="cls-2" d="M50.99,24.74h3.73c2.83,0,5.13,2.3,5.13,5.13v3.73c0,2.83-2.3,5.13-5.13,5.13h-3.73c-2.83,0-5.13-2.3-5.13-5.13v-3.73c0-2.83,2.3-5.13,5.13-5.13Z"/>
    </g>
  </g>
</svg>